<svg xmlns="http://www.w3.org/2000/svg" xmlns:xlink="http://www.w3.org/1999/xlink" width="128" zoomAndPan="magnify" viewBox="0 0 96 95.999999" height="128" preserveAspectRatio="xMidYMid meet" version="1.0"><defs><clipPath id="fed4d853fd"><path d="M 46.777344 15.097656 L 49.027344 15.097656 L 49.027344 17.347656 L 46.777344 17.347656 Z M 46.777344 15.097656 " clip-rule="nonzero"/></clipPath><clipPath id="2be923dd2a"><path d="M 47 16 L 48 16 L 48 17.347656 L 47 17.347656 Z M 47 16 " clip-rule="nonzero"/></clipPath><clipPath id="0b8699f276"><path d="M 48 16 L 49 16 L 49 17.347656 L 48 17.347656 Z M 48 16 " clip-rule="nonzero"/></clipPath><clipPath id="9c994c7246"><path d="M 48 15.097656 L 49 15.097656 L 49 17 L 48 17 Z M 48 15.097656 " clip-rule="nonzero"/></clipPath><clipPath id="b56541cc98"><path d="M 48 17 L 49 17 L 49 17.347656 L 48 17.347656 Z M 48 17 " clip-rule="nonzero"/></clipPath><clipPath id="5f8016dcbb"><path d="M 48 16 L 49 16 L 49 17.347656 L 48 17.347656 Z M 48 16 " clip-rule="nonzero"/></clipPath><clipPath id="9e61145031"><path d="M 48 15.097656 L 49 15.097656 L 49 17 L 48 17 Z M 48 15.097656 " clip-rule="nonzero"/></clipPath><clipPath id="737b4ca9f3"><path d="M 48 17 L 49 17 L 49 17.347656 L 48 17.347656 Z M 48 17 " clip-rule="nonzero"/></clipPath><clipPath id="a5cac6169a"><path d="M 48 15.097656 L 49 15.097656 L 49 17 L 48 17 Z M 48 15.097656 " clip-rule="nonzero"/></clipPath><clipPath id="d04f245567"><path d="M 48 16 L 49 16 L 49 17.347656 L 48 17.347656 Z M 48 16 " clip-rule="nonzero"/></clipPath><clipPath id="d0160c352f"><path d="M 48 15.097656 L 49 15.097656 L 49 17 L 48 17 Z M 48 15.097656 " clip-rule="nonzero"/></clipPath><clipPath id="44a6877084"><path d="M 48 15.097656 L 49 15.097656 L 49 17 L 48 17 Z M 48 15.097656 " clip-rule="nonzero"/></clipPath><clipPath id="29ec5f80d8"><path d="M 48 15.097656 L 49 15.097656 L 49 16 L 48 16 Z M 48 15.097656 " clip-rule="nonzero"/></clipPath><clipPath id="f83dee3064"><path d="M 48 15.097656 L 49 15.097656 L 49 17 L 48 17 Z M 48 15.097656 " clip-rule="nonzero"/></clipPath><clipPath id="8824507f7d"><path d="M 48 15.097656 L 49 15.097656 L 49 16 L 48 16 Z M 48 15.097656 " clip-rule="nonzero"/></clipPath><clipPath id="a503478d30"><path d="M 47 15.097656 L 49 15.097656 L 49 17 L 47 17 Z M 47 15.097656 " clip-rule="nonzero"/></clipPath><clipPath id="2e58cb9b1d"><path d="M 47 15.097656 L 49 15.097656 L 49 16 L 47 16 Z M 47 15.097656 " clip-rule="nonzero"/></clipPath><clipPath id="8979c421ba"><path d="M 47 15.097656 L 48 15.097656 L 48 16 L 47 16 Z M 47 15.097656 " clip-rule="nonzero"/></clipPath><clipPath id="1ff3a9bd9f"><path d="M 47 15.097656 L 48 15.097656 L 48 17 L 47 17 Z M 47 15.097656 " clip-rule="nonzero"/></clipPath><clipPath id="11ff5292f3"><path d="M 47 15.097656 L 48 15.097656 L 48 16 L 47 16 Z M 47 15.097656 " clip-rule="nonzero"/></clipPath><clipPath id="4e78c40e44"><path d="M 47 15.097656 L 48 15.097656 L 48 17 L 47 17 Z M 47 15.097656 " clip-rule="nonzero"/></clipPath><clipPath id="dcce318d87"><path d="M 47 15.097656 L 48 15.097656 L 48 16 L 47 16 Z M 47 15.097656 " clip-rule="nonzero"/></clipPath><clipPath id="0404335dfb"><path d="M 47 16 L 48 16 L 48 17.347656 L 47 17.347656 Z M 47 16 " clip-rule="nonzero"/></clipPath><clipPath id="fa79ce6bdf"><path d="M 47 15.097656 L 48 15.097656 L 48 17 L 47 17 Z M 47 15.097656 " clip-rule="nonzero"/></clipPath><clipPath id="15060b730e"><path d="M 47 17 L 48 17 L 48 17.347656 L 47 17.347656 Z M 47 17 " clip-rule="nonzero"/></clipPath><clipPath id="2a8414e4a4"><path d="M 47 15.097656 L 48 15.097656 L 48 17 L 47 17 Z M 47 15.097656 " clip-rule="nonzero"/></clipPath><clipPath id="5e03e8f80a"><path d="M 47 17 L 48 17 L 48 17.347656 L 47 17.347656 Z M 47 17 " clip-rule="nonzero"/></clipPath><clipPath id="76c616655d"><path d="M 47 16 L 48 16 L 48 17.347656 L 47 17.347656 Z M 47 16 " clip-rule="nonzero"/></clipPath><clipPath id="eef5e2ff8d"><path d="M 47 15.097656 L 48 15.097656 L 48 17 L 47 17 Z M 47 15.097656 " clip-rule="nonzero"/></clipPath><clipPath id="6941975935"><path d="M 46.777344 15.097656 L 48 15.097656 L 48 17 L 46.777344 17 Z M 46.777344 15.097656 " clip-rule="nonzero"/></clipPath><clipPath id="e65354c2aa"><path d="M 48 15.097656 L 49.027344 15.097656 L 49.027344 17 L 48 17 Z M 48 15.097656 " clip-rule="nonzero"/></clipPath><clipPath id="bee074344b"><path d="M 48 16 L 49 16 L 49 17.347656 L 48 17.347656 Z M 48 16 " clip-rule="nonzero"/></clipPath><clipPath id="4075766c84"><path d="M 48 17 L 49 17 L 49 17.347656 L 48 17.347656 Z M 48 17 " clip-rule="nonzero"/></clipPath><clipPath id="4f9a4fcf0f"><path d="M 48 17 L 49 17 L 49 17.347656 L 48 17.347656 Z M 48 17 " clip-rule="nonzero"/></clipPath><clipPath id="a45a4b015b"><path d="M 48 16 L 49 16 L 49 17.347656 L 48 17.347656 Z M 48 16 " clip-rule="nonzero"/></clipPath><clipPath id="4140bf5bcb"><path d="M 48 15.097656 L 49 15.097656 L 49 16 L 48 16 Z M 48 15.097656 " clip-rule="nonzero"/></clipPath><clipPath id="bcc510f65f"><path d="M 47 15.097656 L 49 15.097656 L 49 16 L 47 16 Z M 47 15.097656 " clip-rule="nonzero"/></clipPath><clipPath id="483f05fe06"><path d="M 47 15.097656 L 48 15.097656 L 48 17 L 47 17 Z M 47 15.097656 " clip-rule="nonzero"/></clipPath><clipPath id="0fbf6869df"><path d="M 47 15.097656 L 48 15.097656 L 48 16 L 47 16 Z M 47 15.097656 " clip-rule="nonzero"/></clipPath><clipPath id="0ee6479434"><path d="M 47 16 L 48 16 L 48 17.347656 L 47 17.347656 Z M 47 16 " clip-rule="nonzero"/></clipPath><clipPath id="583a27abff"><path d="M 47 15.097656 L 48 15.097656 L 48 16 L 47 16 Z M 47 15.097656 " clip-rule="nonzero"/></clipPath><clipPath id="4075ef5954"><path d="M 47 17 L 48 17 L 48 17.347656 L 47 17.347656 Z M 47 17 " clip-rule="nonzero"/></clipPath><clipPath id="4e4ad2a386"><path d="M 47 17 L 48 17 L 48 17.347656 L 47 17.347656 Z M 47 17 " clip-rule="nonzero"/></clipPath><clipPath id="361aa36d67"><path d="M 46.777344 16 L 48 16 L 48 17.347656 L 46.777344 17.347656 Z M 46.777344 16 " clip-rule="nonzero"/></clipPath><clipPath id="4953a55250"><path d="M 46.777344 16 L 48 16 L 48 17 L 46.777344 17 Z M 46.777344 16 " clip-rule="nonzero"/></clipPath><clipPath id="e23fb588b1"><path d="M 46.777344 15.097656 L 48 15.097656 L 48 17 L 46.777344 17 Z M 46.777344 15.097656 " clip-rule="nonzero"/></clipPath><clipPath id="5ba5805da3"><path d="M 41 9.601562 L 57 9.601562 L 57 25 L 41 25 Z M 41 9.601562 " clip-rule="nonzero"/></clipPath><clipPath id="5576d47da9"><path d="M 22 25 L 74 25 L 74 86.101562 L 22 86.101562 Z M 22 25 " clip-rule="nonzero"/></clipPath></defs><g clip-path="url(#fed4d853fd)"><path fill="#ffffff" d="M 48.886719 15.761719 L 48.324219 15.761719 L 48.324219 15.496094 L 48.183594 15.496094 L 48.183594 15.230469 L 48.042969 15.230469 L 48.042969 15.097656 L 47.761719 15.097656 L 47.761719 15.230469 L 47.621094 15.230469 L 47.621094 15.496094 L 47.480469 15.496094 L 47.480469 15.761719 L 46.777344 15.761719 L 46.777344 16.027344 L 46.917969 16.027344 L 46.917969 16.15625 L 47.058594 16.15625 L 47.058594 16.289062 L 47.199219 16.289062 L 47.199219 16.554688 L 47.058594 16.554688 L 47.058594 16.953125 L 46.917969 16.953125 L 46.917969 17.214844 L 47.058594 17.214844 L 47.058594 17.347656 L 47.339844 17.347656 L 47.339844 17.214844 L 47.480469 17.214844 L 47.480469 17.085938 L 47.761719 17.085938 L 47.761719 16.953125 L 48.042969 16.953125 L 48.042969 17.085938 L 48.324219 17.085938 L 48.324219 17.214844 L 48.464844 17.214844 L 48.464844 17.347656 L 48.746094 17.347656 L 48.746094 17.214844 L 48.886719 17.214844 L 48.886719 16.953125 L 48.746094 16.953125 L 48.746094 16.554688 L 48.605469 16.554688 L 48.605469 16.289062 L 48.746094 16.289062 L 48.746094 16.15625 L 48.886719 16.15625 L 48.886719 16.027344 L 49.027344 16.027344 L 49.027344 15.761719 Z M 48.886719 15.761719 " fill-opacity="1" fill-rule="nonzero"/></g><g clip-path="url(#2be923dd2a)"><path fill="#ffffff" d="M 47.199219 16.953125 L 47.339844 16.953125 L 47.339844 17.085938 L 47.199219 17.085938 Z M 47.199219 16.953125 " fill-opacity="1" fill-rule="nonzero"/></g><g clip-path="url(#0b8699f276)"><path fill="#ffffff" d="M 48.464844 16.953125 L 48.605469 16.953125 L 48.605469 17.085938 L 48.464844 17.085938 Z M 48.464844 16.953125 " fill-opacity="1" fill-rule="nonzero"/></g><g clip-path="url(#9c994c7246)"><path fill="#ffffff" d="M 48.746094 15.894531 L 48.886719 15.894531 L 48.886719 16.027344 L 48.746094 16.027344 Z M 48.746094 15.894531 " fill-opacity="1" fill-rule="nonzero"/></g><g clip-path="url(#b56541cc98)"><path fill="#ffffff" d="M 48.605469 17.085938 L 48.746094 17.085938 L 48.746094 17.214844 L 48.605469 17.214844 Z M 48.605469 17.085938 " fill-opacity="1" fill-rule="nonzero"/></g><g clip-path="url(#5f8016dcbb)"><path fill="#ffffff" d="M 48.605469 16.953125 L 48.746094 16.953125 L 48.746094 17.085938 L 48.605469 17.085938 Z M 48.605469 16.953125 " fill-opacity="1" fill-rule="nonzero"/></g><path fill="#ffffff" d="M 48.605469 16.027344 L 48.746094 16.027344 L 48.746094 16.15625 L 48.605469 16.15625 Z M 48.605469 16.027344 " fill-opacity="1" fill-rule="nonzero"/><g clip-path="url(#9e61145031)"><path fill="#ffffff" d="M 48.605469 15.894531 L 48.746094 15.894531 L 48.746094 16.027344 L 48.605469 16.027344 Z M 48.605469 15.894531 " fill-opacity="1" fill-rule="nonzero"/></g><g clip-path="url(#737b4ca9f3)"><path fill="#ffffff" d="M 48.464844 17.085938 L 48.605469 17.085938 L 48.605469 17.214844 L 48.464844 17.214844 Z M 48.464844 17.085938 " fill-opacity="1" fill-rule="nonzero"/></g><path fill="#ffffff" d="M 48.464844 16.820312 L 48.605469 16.820312 L 48.605469 16.953125 L 48.464844 16.953125 Z M 48.464844 16.820312 " fill-opacity="1" fill-rule="nonzero"/><path fill="#ffffff" d="M 48.464844 16.6875 L 48.605469 16.6875 L 48.605469 16.820312 L 48.464844 16.820312 Z M 48.464844 16.6875 " fill-opacity="1" fill-rule="nonzero"/><path fill="#ffffff" d="M 48.464844 16.554688 L 48.605469 16.554688 L 48.605469 16.6875 L 48.464844 16.6875 Z M 48.464844 16.554688 " fill-opacity="1" fill-rule="nonzero"/><path fill="#ffffff" d="M 48.464844 16.15625 L 48.605469 16.15625 L 48.605469 16.289062 L 48.464844 16.289062 Z M 48.464844 16.15625 " fill-opacity="1" fill-rule="nonzero"/><path fill="#ffffff" d="M 48.464844 16.027344 L 48.605469 16.027344 L 48.605469 16.15625 L 48.464844 16.15625 Z M 48.464844 16.027344 " fill-opacity="1" fill-rule="nonzero"/><g clip-path="url(#a5cac6169a)"><path fill="#ffffff" d="M 48.464844 15.894531 L 48.605469 15.894531 L 48.605469 16.027344 L 48.464844 16.027344 Z M 48.464844 15.894531 " fill-opacity="1" fill-rule="nonzero"/></g><g clip-path="url(#d04f245567)"><path fill="#ffffff" d="M 48.324219 16.953125 L 48.464844 16.953125 L 48.464844 17.085938 L 48.324219 17.085938 Z M 48.324219 16.953125 " fill-opacity="1" fill-rule="nonzero"/></g><path fill="#ffffff" d="M 48.324219 16.820312 L 48.464844 16.820312 L 48.464844 16.953125 L 48.324219 16.953125 Z M 48.324219 16.820312 " fill-opacity="1" fill-rule="nonzero"/><path fill="#ffffff" d="M 48.324219 16.6875 L 48.464844 16.6875 L 48.464844 16.820312 L 48.324219 16.820312 Z M 48.324219 16.6875 " fill-opacity="1" fill-rule="nonzero"/><path fill="#ffffff" d="M 48.324219 16.554688 L 48.464844 16.554688 L 48.464844 16.6875 L 48.324219 16.6875 Z M 48.324219 16.554688 " fill-opacity="1" fill-rule="nonzero"/><path fill="#ffffff" d="M 48.324219 16.421875 L 48.464844 16.421875 L 48.464844 16.554688 L 48.324219 16.554688 Z M 48.324219 16.421875 " fill-opacity="1" fill-rule="nonzero"/><path fill="#ffffff" d="M 48.324219 16.289062 L 48.464844 16.289062 L 48.464844 16.421875 L 48.324219 16.421875 Z M 48.324219 16.289062 " fill-opacity="1" fill-rule="nonzero"/><path fill="#ffffff" d="M 48.324219 16.15625 L 48.464844 16.15625 L 48.464844 16.289062 L 48.324219 16.289062 Z M 48.324219 16.15625 " fill-opacity="1" fill-rule="nonzero"/><path fill="#ffffff" d="M 48.324219 16.027344 L 48.464844 16.027344 L 48.464844 16.15625 L 48.324219 16.15625 Z M 48.324219 16.027344 " fill-opacity="1" fill-rule="nonzero"/><g clip-path="url(#d0160c352f)"><path fill="#ffffff" d="M 48.324219 15.894531 L 48.464844 15.894531 L 48.464844 16.027344 L 48.324219 16.027344 Z M 48.324219 15.894531 " fill-opacity="1" fill-rule="nonzero"/></g><path fill="#ffffff" d="M 48.183594 16.820312 L 48.324219 16.820312 L 48.324219 16.953125 L 48.183594 16.953125 Z M 48.183594 16.820312 " fill-opacity="1" fill-rule="nonzero"/><path fill="#ffffff" d="M 48.183594 16.6875 L 48.324219 16.6875 L 48.324219 16.820312 L 48.183594 16.820312 Z M 48.183594 16.6875 " fill-opacity="1" fill-rule="nonzero"/><path fill="#ffffff" d="M 48.183594 16.554688 L 48.324219 16.554688 L 48.324219 16.6875 L 48.183594 16.6875 Z M 48.183594 16.554688 " fill-opacity="1" fill-rule="nonzero"/><path fill="#ffffff" d="M 48.183594 16.421875 L 48.324219 16.421875 L 48.324219 16.554688 L 48.183594 16.554688 Z M 48.183594 16.421875 " fill-opacity="1" fill-rule="nonzero"/><path fill="#ffffff" d="M 48.183594 16.289062 L 48.324219 16.289062 L 48.324219 16.421875 L 48.183594 16.421875 Z M 48.183594 16.289062 " fill-opacity="1" fill-rule="nonzero"/><path fill="#ffffff" d="M 48.183594 16.15625 L 48.324219 16.15625 L 48.324219 16.289062 L 48.183594 16.289062 Z M 48.183594 16.15625 " fill-opacity="1" fill-rule="nonzero"/><path fill="#ffffff" d="M 48.183594 16.027344 L 48.324219 16.027344 L 48.324219 16.15625 L 48.183594 16.15625 Z M 48.183594 16.027344 " fill-opacity="1" fill-rule="nonzero"/><g clip-path="url(#44a6877084)"><path fill="#ffffff" d="M 48.183594 15.894531 L 48.324219 15.894531 L 48.324219 16.027344 L 48.183594 16.027344 Z M 48.183594 15.894531 " fill-opacity="1" fill-rule="nonzero"/></g><g clip-path="url(#29ec5f80d8)"><path fill="#ffffff" d="M 48.183594 15.761719 L 48.324219 15.761719 L 48.324219 15.894531 L 48.183594 15.894531 Z M 48.183594 15.761719 " fill-opacity="1" fill-rule="nonzero"/></g><path fill="#ffffff" d="M 48.042969 16.820312 L 48.183594 16.820312 L 48.183594 16.953125 L 48.042969 16.953125 Z M 48.042969 16.820312 " fill-opacity="1" fill-rule="nonzero"/><path fill="#ffffff" d="M 48.042969 16.6875 L 48.183594 16.6875 L 48.183594 16.820312 L 48.042969 16.820312 Z M 48.042969 16.6875 " fill-opacity="1" fill-rule="nonzero"/><path fill="#ffffff" d="M 48.042969 16.554688 L 48.183594 16.554688 L 48.183594 16.6875 L 48.042969 16.6875 Z M 48.042969 16.554688 " fill-opacity="1" fill-rule="nonzero"/><path fill="#ffffff" d="M 48.042969 16.421875 L 48.183594 16.421875 L 48.183594 16.554688 L 48.042969 16.554688 Z M 48.042969 16.421875 " fill-opacity="1" fill-rule="nonzero"/><path fill="#ffffff" d="M 48.042969 16.289062 L 48.183594 16.289062 L 48.183594 16.421875 L 48.042969 16.421875 Z M 48.042969 16.289062 " fill-opacity="1" fill-rule="nonzero"/><path fill="#ffffff" d="M 48.042969 16.15625 L 48.183594 16.15625 L 48.183594 16.289062 L 48.042969 16.289062 Z M 48.042969 16.15625 " fill-opacity="1" fill-rule="nonzero"/><path fill="#ffffff" d="M 48.042969 16.027344 L 48.183594 16.027344 L 48.183594 16.15625 L 48.042969 16.15625 Z M 48.042969 16.027344 " fill-opacity="1" fill-rule="nonzero"/><g clip-path="url(#f83dee3064)"><path fill="#ffffff" d="M 48.042969 15.894531 L 48.183594 15.894531 L 48.183594 16.027344 L 48.042969 16.027344 Z M 48.042969 15.894531 " fill-opacity="1" fill-rule="nonzero"/></g><g clip-path="url(#8824507f7d)"><path fill="#ffffff" d="M 48.042969 15.761719 L 48.183594 15.761719 L 48.183594 15.894531 L 48.042969 15.894531 Z M 48.042969 15.761719 " fill-opacity="1" fill-rule="nonzero"/><path fill="#ffffff" d="M 48.042969 15.628906 L 48.183594 15.628906 L 48.183594 15.761719 L 48.042969 15.761719 Z M 48.042969 15.628906 " fill-opacity="1" fill-rule="nonzero"/><path fill="#ffffff" d="M 48.042969 15.496094 L 48.183594 15.496094 L 48.183594 15.628906 L 48.042969 15.628906 Z M 48.042969 15.496094 " fill-opacity="1" fill-rule="nonzero"/></g><path fill="#ffffff" d="M 47.902344 16.6875 L 48.042969 16.6875 L 48.042969 16.820312 L 47.902344 16.820312 Z M 47.902344 16.6875 " fill-opacity="1" fill-rule="nonzero"/><path fill="#ffffff" d="M 47.902344 16.554688 L 48.042969 16.554688 L 48.042969 16.6875 L 47.902344 16.6875 Z M 47.902344 16.554688 " fill-opacity="1" fill-rule="nonzero"/><path fill="#ffffff" d="M 47.902344 16.421875 L 48.042969 16.421875 L 48.042969 16.554688 L 47.902344 16.554688 Z M 47.902344 16.421875 " fill-opacity="1" fill-rule="nonzero"/><path fill="#ffffff" d="M 47.902344 16.289062 L 48.042969 16.289062 L 48.042969 16.421875 L 47.902344 16.421875 Z M 47.902344 16.289062 " fill-opacity="1" fill-rule="nonzero"/><path fill="#ffffff" d="M 47.902344 16.15625 L 48.042969 16.15625 L 48.042969 16.289062 L 47.902344 16.289062 Z M 47.902344 16.15625 " fill-opacity="1" fill-rule="nonzero"/><path fill="#ffffff" d="M 47.902344 16.027344 L 48.042969 16.027344 L 48.042969 16.15625 L 47.902344 16.15625 Z M 47.902344 16.027344 " fill-opacity="1" fill-rule="nonzero"/><g clip-path="url(#a503478d30)"><path fill="#ffffff" d="M 47.902344 15.894531 L 48.042969 15.894531 L 48.042969 16.027344 L 47.902344 16.027344 Z M 47.902344 15.894531 " fill-opacity="1" fill-rule="nonzero"/></g><g clip-path="url(#2e58cb9b1d)"><path fill="#ffffff" d="M 47.902344 15.761719 L 48.042969 15.761719 L 48.042969 15.894531 L 47.902344 15.894531 Z M 47.902344 15.761719 " fill-opacity="1" fill-rule="nonzero"/><path fill="#ffffff" d="M 47.902344 15.628906 L 48.042969 15.628906 L 48.042969 15.761719 L 47.902344 15.761719 Z M 47.902344 15.628906 " fill-opacity="1" fill-rule="nonzero"/><path fill="#ffffff" d="M 47.902344 15.496094 L 48.042969 15.496094 L 48.042969 15.628906 L 47.902344 15.628906 Z M 47.902344 15.496094 " fill-opacity="1" fill-rule="nonzero"/><path fill="#ffffff" d="M 47.902344 15.363281 L 48.042969 15.363281 L 48.042969 15.496094 L 47.902344 15.496094 Z M 47.902344 15.363281 " fill-opacity="1" fill-rule="nonzero"/><path fill="#ffffff" d="M 47.902344 15.230469 L 48.042969 15.230469 L 48.042969 15.363281 L 47.902344 15.363281 Z M 47.902344 15.230469 " fill-opacity="1" fill-rule="nonzero"/></g><path fill="#ffffff" d="M 47.761719 16.6875 L 47.902344 16.6875 L 47.902344 16.820312 L 47.761719 16.820312 Z M 47.761719 16.6875 " fill-opacity="1" fill-rule="nonzero"/><path fill="#ffffff" d="M 47.761719 16.554688 L 47.902344 16.554688 L 47.902344 16.6875 L 47.761719 16.6875 Z M 47.761719 16.554688 " fill-opacity="1" fill-rule="nonzero"/><path fill="#ffffff" d="M 47.761719 16.421875 L 47.902344 16.421875 L 47.902344 16.554688 L 47.761719 16.554688 Z M 47.761719 16.421875 " fill-opacity="1" fill-rule="nonzero"/><path fill="#ffffff" d="M 47.761719 16.289062 L 47.902344 16.289062 L 47.902344 16.421875 L 47.761719 16.421875 Z M 47.761719 16.289062 " fill-opacity="1" fill-rule="nonzero"/><path fill="#ffffff" d="M 47.761719 16.15625 L 47.902344 16.15625 L 47.902344 16.289062 L 47.761719 16.289062 Z M 47.761719 16.15625 " fill-opacity="1" fill-rule="nonzero"/><path fill="#ffffff" d="M 47.761719 16.027344 L 47.902344 16.027344 L 47.902344 16.15625 L 47.761719 16.15625 Z M 47.761719 16.027344 " fill-opacity="1" fill-rule="nonzero"/><g clip-path="url(#8979c421ba)"><path fill="#ffffff" d="M 47.761719 15.761719 L 47.902344 15.761719 L 47.902344 15.894531 L 47.761719 15.894531 Z M 47.761719 15.761719 " fill-opacity="1" fill-rule="nonzero"/><path fill="#ffffff" d="M 47.761719 15.628906 L 47.902344 15.628906 L 47.902344 15.761719 L 47.761719 15.761719 Z M 47.761719 15.628906 " fill-opacity="1" fill-rule="nonzero"/><path fill="#ffffff" d="M 47.761719 15.496094 L 47.902344 15.496094 L 47.902344 15.628906 L 47.761719 15.628906 Z M 47.761719 15.496094 " fill-opacity="1" fill-rule="nonzero"/><path fill="#ffffff" d="M 47.761719 15.363281 L 47.902344 15.363281 L 47.902344 15.496094 L 47.761719 15.496094 Z M 47.761719 15.363281 " fill-opacity="1" fill-rule="nonzero"/><path fill="#ffffff" d="M 47.761719 15.230469 L 47.902344 15.230469 L 47.902344 15.363281 L 47.761719 15.363281 Z M 47.761719 15.230469 " fill-opacity="1" fill-rule="nonzero"/></g><path fill="#ffffff" d="M 47.621094 16.820312 L 47.761719 16.820312 L 47.761719 16.953125 L 47.621094 16.953125 Z M 47.621094 16.820312 " fill-opacity="1" fill-rule="nonzero"/><path fill="#ffffff" d="M 47.621094 16.6875 L 47.761719 16.6875 L 47.761719 16.820312 L 47.621094 16.820312 Z M 47.621094 16.6875 " fill-opacity="1" fill-rule="nonzero"/><path fill="#ffffff" d="M 47.621094 16.554688 L 47.761719 16.554688 L 47.761719 16.6875 L 47.621094 16.6875 Z M 47.621094 16.554688 " fill-opacity="1" fill-rule="nonzero"/><path fill="#ffffff" d="M 47.621094 16.421875 L 47.761719 16.421875 L 47.761719 16.554688 L 47.621094 16.554688 Z M 47.621094 16.421875 " fill-opacity="1" fill-rule="nonzero"/><path fill="#ffffff" d="M 47.621094 16.289062 L 47.761719 16.289062 L 47.761719 16.421875 L 47.621094 16.421875 Z M 47.621094 16.289062 " fill-opacity="1" fill-rule="nonzero"/><g clip-path="url(#1ff3a9bd9f)"><path fill="#ffffff" d="M 47.621094 15.894531 L 47.761719 15.894531 L 47.761719 16.027344 L 47.621094 16.027344 Z M 47.621094 15.894531 " fill-opacity="1" fill-rule="nonzero"/></g><g clip-path="url(#11ff5292f3)"><path fill="#ffffff" d="M 47.621094 15.761719 L 47.761719 15.761719 L 47.761719 15.894531 L 47.621094 15.894531 Z M 47.621094 15.761719 " fill-opacity="1" fill-rule="nonzero"/><path fill="#ffffff" d="M 47.621094 15.628906 L 47.761719 15.628906 L 47.761719 15.761719 L 47.621094 15.761719 Z M 47.621094 15.628906 " fill-opacity="1" fill-rule="nonzero"/><path fill="#ffffff" d="M 47.621094 15.496094 L 47.761719 15.496094 L 47.761719 15.628906 L 47.621094 15.628906 Z M 47.621094 15.496094 " fill-opacity="1" fill-rule="nonzero"/></g><path fill="#ffffff" d="M 47.480469 16.820312 L 47.621094 16.820312 L 47.621094 16.953125 L 47.480469 16.953125 Z M 47.480469 16.820312 " fill-opacity="1" fill-rule="nonzero"/><path fill="#ffffff" d="M 47.480469 16.6875 L 47.621094 16.6875 L 47.621094 16.820312 L 47.480469 16.820312 Z M 47.480469 16.6875 " fill-opacity="1" fill-rule="nonzero"/><path fill="#ffffff" d="M 47.480469 16.554688 L 47.621094 16.554688 L 47.621094 16.6875 L 47.480469 16.6875 Z M 47.480469 16.554688 " fill-opacity="1" fill-rule="nonzero"/><path fill="#ffffff" d="M 47.480469 16.421875 L 47.621094 16.421875 L 47.621094 16.554688 L 47.480469 16.554688 Z M 47.480469 16.421875 " fill-opacity="1" fill-rule="nonzero"/><path fill="#ffffff" d="M 47.480469 16.289062 L 47.621094 16.289062 L 47.621094 16.421875 L 47.480469 16.421875 Z M 47.480469 16.289062 " fill-opacity="1" fill-rule="nonzero"/><path fill="#ffffff" d="M 47.480469 16.15625 L 47.621094 16.15625 L 47.621094 16.289062 L 47.480469 16.289062 Z M 47.480469 16.15625 " fill-opacity="1" fill-rule="nonzero"/><path fill="#ffffff" d="M 47.480469 16.027344 L 47.621094 16.027344 L 47.621094 16.15625 L 47.480469 16.15625 Z M 47.480469 16.027344 " fill-opacity="1" fill-rule="nonzero"/><g clip-path="url(#4e78c40e44)"><path fill="#ffffff" d="M 47.480469 15.894531 L 47.621094 15.894531 L 47.621094 16.027344 L 47.480469 16.027344 Z M 47.480469 15.894531 " fill-opacity="1" fill-rule="nonzero"/></g><g clip-path="url(#dcce318d87)"><path fill="#ffffff" d="M 47.480469 15.761719 L 47.621094 15.761719 L 47.621094 15.894531 L 47.480469 15.894531 Z M 47.480469 15.761719 " fill-opacity="1" fill-rule="nonzero"/></g><g clip-path="url(#0404335dfb)"><path fill="#ffffff" d="M 47.339844 16.953125 L 47.480469 16.953125 L 47.480469 17.085938 L 47.339844 17.085938 Z M 47.339844 16.953125 " fill-opacity="1" fill-rule="nonzero"/></g><path fill="#ffffff" d="M 47.339844 16.820312 L 47.480469 16.820312 L 47.480469 16.953125 L 47.339844 16.953125 Z M 47.339844 16.820312 " fill-opacity="1" fill-rule="nonzero"/><path fill="#ffffff" d="M 47.339844 16.6875 L 47.480469 16.6875 L 47.480469 16.820312 L 47.339844 16.820312 Z M 47.339844 16.6875 " fill-opacity="1" fill-rule="nonzero"/><path fill="#ffffff" d="M 47.339844 16.554688 L 47.480469 16.554688 L 47.480469 16.6875 L 47.339844 16.6875 Z M 47.339844 16.554688 " fill-opacity="1" fill-rule="nonzero"/><path fill="#ffffff" d="M 47.339844 16.421875 L 47.480469 16.421875 L 47.480469 16.554688 L 47.339844 16.554688 Z M 47.339844 16.421875 " fill-opacity="1" fill-rule="nonzero"/><path fill="#ffffff" d="M 47.339844 16.289062 L 47.480469 16.289062 L 47.480469 16.421875 L 47.339844 16.421875 Z M 47.339844 16.289062 " fill-opacity="1" fill-rule="nonzero"/><path fill="#ffffff" d="M 47.339844 16.15625 L 47.480469 16.15625 L 47.480469 16.289062 L 47.339844 16.289062 Z M 47.339844 16.15625 " fill-opacity="1" fill-rule="nonzero"/><path fill="#ffffff" d="M 47.339844 16.027344 L 47.480469 16.027344 L 47.480469 16.15625 L 47.339844 16.15625 Z M 47.339844 16.027344 " fill-opacity="1" fill-rule="nonzero"/><g clip-path="url(#fa79ce6bdf)"><path fill="#ffffff" d="M 47.339844 15.894531 L 47.480469 15.894531 L 47.480469 16.027344 L 47.339844 16.027344 Z M 47.339844 15.894531 " fill-opacity="1" fill-rule="nonzero"/></g><g clip-path="url(#15060b730e)"><path fill="#ffffff" d="M 47.199219 17.085938 L 47.339844 17.085938 L 47.339844 17.214844 L 47.199219 17.214844 Z M 47.199219 17.085938 " fill-opacity="1" fill-rule="nonzero"/></g><path fill="#ffffff" d="M 47.199219 16.820312 L 47.339844 16.820312 L 47.339844 16.953125 L 47.199219 16.953125 Z M 47.199219 16.820312 " fill-opacity="1" fill-rule="nonzero"/><path fill="#ffffff" d="M 47.199219 16.6875 L 47.339844 16.6875 L 47.339844 16.820312 L 47.199219 16.820312 Z M 47.199219 16.6875 " fill-opacity="1" fill-rule="nonzero"/><path fill="#ffffff" d="M 47.199219 16.554688 L 47.339844 16.554688 L 47.339844 16.6875 L 47.199219 16.6875 Z M 47.199219 16.554688 " fill-opacity="1" fill-rule="nonzero"/><path fill="#ffffff" d="M 47.199219 16.15625 L 47.339844 16.15625 L 47.339844 16.289062 L 47.199219 16.289062 Z M 47.199219 16.15625 " fill-opacity="1" fill-rule="nonzero"/><path fill="#ffffff" d="M 47.199219 16.027344 L 47.339844 16.027344 L 47.339844 16.15625 L 47.199219 16.15625 Z M 47.199219 16.027344 " fill-opacity="1" fill-rule="nonzero"/><g clip-path="url(#2a8414e4a4)"><path fill="#ffffff" d="M 47.199219 15.894531 L 47.339844 15.894531 L 47.339844 16.027344 L 47.199219 16.027344 Z M 47.199219 15.894531 " fill-opacity="1" fill-rule="nonzero"/></g><g clip-path="url(#5e03e8f80a)"><path fill="#ffffff" d="M 47.058594 17.085938 L 47.199219 17.085938 L 47.199219 17.214844 L 47.058594 17.214844 Z M 47.058594 17.085938 " fill-opacity="1" fill-rule="nonzero"/></g><g clip-path="url(#76c616655d)"><path fill="#ffffff" d="M 47.058594 16.953125 L 47.199219 16.953125 L 47.199219 17.085938 L 47.058594 17.085938 Z M 47.058594 16.953125 " fill-opacity="1" fill-rule="nonzero"/></g><path fill="#ffffff" d="M 47.058594 16.027344 L 47.199219 16.027344 L 47.199219 16.15625 L 47.058594 16.15625 Z M 47.058594 16.027344 " fill-opacity="1" fill-rule="nonzero"/><g clip-path="url(#eef5e2ff8d)"><path fill="#ffffff" d="M 47.058594 15.894531 L 47.199219 15.894531 L 47.199219 16.027344 L 47.058594 16.027344 Z M 47.058594 15.894531 " fill-opacity="1" fill-rule="nonzero"/></g><g clip-path="url(#6941975935)"><path fill="#ffffff" d="M 46.917969 15.894531 L 47.058594 15.894531 L 47.058594 16.027344 L 46.917969 16.027344 Z M 46.917969 15.894531 " fill-opacity="1" fill-rule="nonzero"/></g><g clip-path="url(#e65354c2aa)"><path fill="#0e0e11" d="M 48.886719 15.761719 L 48.324219 15.761719 L 48.324219 15.894531 L 48.886719 15.894531 L 48.886719 16.027344 L 49.027344 16.027344 L 49.027344 15.761719 Z M 48.886719 15.761719 " fill-opacity="1" fill-rule="nonzero"/></g><g clip-path="url(#bee074344b)"><path fill="#0e0e11" d="M 48.746094 17.214844 L 48.886719 17.214844 L 48.886719 16.953125 L 48.746094 16.953125 Z M 48.746094 17.214844 " fill-opacity="1" fill-rule="nonzero"/></g><path fill="#0e0e11" d="M 48.746094 16.027344 L 48.886719 16.027344 L 48.886719 16.15625 L 48.746094 16.15625 Z M 48.746094 16.027344 " fill-opacity="1" fill-rule="nonzero"/><path fill="#0e0e11" d="M 48.605469 16.820312 L 48.605469 16.953125 L 48.746094 16.953125 L 48.746094 16.554688 L 48.605469 16.554688 Z M 48.605469 16.820312 " fill-opacity="1" fill-rule="nonzero"/><path fill="#0e0e11" d="M 48.605469 16.15625 L 48.746094 16.15625 L 48.746094 16.289062 L 48.605469 16.289062 Z M 48.605469 16.15625 " fill-opacity="1" fill-rule="nonzero"/><g clip-path="url(#4075766c84)"><path fill="#0e0e11" d="M 48.464844 17.214844 L 48.464844 17.347656 L 48.746094 17.347656 L 48.746094 17.214844 Z M 48.464844 17.214844 " fill-opacity="1" fill-rule="nonzero"/></g><path fill="#0e0e11" d="M 48.464844 16.421875 L 48.464844 16.554688 L 48.605469 16.554688 L 48.605469 16.289062 L 48.464844 16.289062 Z M 48.464844 16.421875 " fill-opacity="1" fill-rule="nonzero"/><g clip-path="url(#4f9a4fcf0f)"><path fill="#0e0e11" d="M 48.324219 17.085938 L 48.464844 17.085938 L 48.464844 17.214844 L 48.324219 17.214844 Z M 48.324219 17.085938 " fill-opacity="1" fill-rule="nonzero"/></g><g clip-path="url(#a45a4b015b)"><path fill="#0e0e11" d="M 48.183594 16.953125 L 48.042969 16.953125 L 48.042969 17.085938 L 48.324219 17.085938 L 48.324219 16.953125 Z M 48.183594 16.953125 " fill-opacity="1" fill-rule="nonzero"/></g><g clip-path="url(#4140bf5bcb)"><path fill="#0e0e11" d="M 48.183594 15.761719 L 48.324219 15.761719 L 48.324219 15.496094 L 48.183594 15.496094 Z M 48.183594 15.761719 " fill-opacity="1" fill-rule="nonzero"/><path fill="#0e0e11" d="M 48.042969 15.496094 L 48.183594 15.496094 L 48.183594 15.230469 L 48.042969 15.230469 Z M 48.042969 15.496094 " fill-opacity="1" fill-rule="nonzero"/></g><path fill="#0e0e11" d="M 47.902344 16.820312 L 47.761719 16.820312 L 47.761719 16.953125 L 48.042969 16.953125 L 48.042969 16.820312 Z M 47.902344 16.820312 " fill-opacity="1" fill-rule="nonzero"/><g clip-path="url(#bcc510f65f)"><path fill="#0e0e11" d="M 48.042969 15.230469 L 48.042969 15.097656 L 47.761719 15.097656 L 47.761719 15.230469 Z M 48.042969 15.230469 " fill-opacity="1" fill-rule="nonzero"/></g><g clip-path="url(#483f05fe06)"><path fill="#0e0e11" d="M 47.761719 15.894531 L 47.902344 15.894531 L 47.902344 16.027344 L 47.761719 16.027344 Z M 47.761719 15.894531 " fill-opacity="1" fill-rule="nonzero"/></g><path fill="#0e0e11" d="M 47.621094 16.15625 L 47.621094 16.289062 L 47.761719 16.289062 L 47.761719 16.027344 L 47.621094 16.027344 Z M 47.621094 16.15625 " fill-opacity="1" fill-rule="nonzero"/><g clip-path="url(#0fbf6869df)"><path fill="#0e0e11" d="M 47.761719 15.363281 L 47.761719 15.230469 L 47.621094 15.230469 L 47.621094 15.496094 L 47.761719 15.496094 Z M 47.761719 15.363281 " fill-opacity="1" fill-rule="nonzero"/></g><g clip-path="url(#0ee6479434)"><path fill="#0e0e11" d="M 47.480469 16.953125 L 47.480469 17.085938 L 47.761719 17.085938 L 47.761719 16.953125 Z M 47.480469 16.953125 " fill-opacity="1" fill-rule="nonzero"/></g><g clip-path="url(#583a27abff)"><path fill="#0e0e11" d="M 47.621094 15.628906 L 47.621094 15.496094 L 47.480469 15.496094 L 47.480469 15.761719 L 47.621094 15.761719 Z M 47.621094 15.628906 " fill-opacity="1" fill-rule="nonzero"/></g><g clip-path="url(#4075ef5954)"><path fill="#0e0e11" d="M 47.339844 17.085938 L 47.480469 17.085938 L 47.480469 17.214844 L 47.339844 17.214844 Z M 47.339844 17.085938 " fill-opacity="1" fill-rule="nonzero"/></g><path fill="#0e0e11" d="M 47.339844 16.421875 L 47.339844 16.289062 L 47.199219 16.289062 L 47.199219 16.554688 L 47.339844 16.554688 Z M 47.339844 16.421875 " fill-opacity="1" fill-rule="nonzero"/><g clip-path="url(#4e4ad2a386)"><path fill="#0e0e11" d="M 47.058594 17.214844 L 47.058594 17.347656 L 47.339844 17.347656 L 47.339844 17.214844 Z M 47.058594 17.214844 " fill-opacity="1" fill-rule="nonzero"/></g><path fill="#0e0e11" d="M 47.199219 16.820312 L 47.199219 16.554688 L 47.058594 16.554688 L 47.058594 16.953125 L 47.199219 16.953125 Z M 47.199219 16.820312 " fill-opacity="1" fill-rule="nonzero"/><path fill="#0e0e11" d="M 47.058594 16.15625 L 47.199219 16.15625 L 47.199219 16.289062 L 47.058594 16.289062 Z M 47.058594 16.15625 " fill-opacity="1" fill-rule="nonzero"/><g clip-path="url(#361aa36d67)"><path fill="#0e0e11" d="M 47.058594 16.953125 L 46.917969 16.953125 L 46.917969 17.214844 L 47.058594 17.214844 Z M 47.058594 16.953125 " fill-opacity="1" fill-rule="nonzero"/></g><g clip-path="url(#4953a55250)"><path fill="#0e0e11" d="M 46.917969 16.027344 L 47.058594 16.027344 L 47.058594 16.15625 L 46.917969 16.15625 Z M 46.917969 16.027344 " fill-opacity="1" fill-rule="nonzero"/></g><g clip-path="url(#e23fb588b1)"><path fill="#0e0e11" d="M 47.058594 15.894531 L 47.480469 15.894531 L 47.480469 15.761719 L 46.777344 15.761719 L 46.777344 16.027344 L 46.917969 16.027344 L 46.917969 15.894531 Z M 47.058594 15.894531 " fill-opacity="1" fill-rule="nonzero"/></g><g clip-path="url(#5ba5805da3)"><path fill="#254276" d="M 48.726562 24.054688 C 52.78125 24.371094 56.292969 21.453125 56.621094 17.539062 C 56.9375 13.621094 53.921875 10.21875 49.867188 9.886719 C 45.855469 9.597656 42.3125 12.515625 42.015625 16.429688 C 41.671875 20.316406 44.683594 23.75 48.726562 24.054688 " fill-opacity="1" fill-rule="nonzero"/></g><g clip-path="url(#5576d47da9)"><path fill="#254276" d="M 44.496094 26.59375 C 45.925781 25.738281 47.664062 25.171875 49.605469 25.316406 C 52.09375 25.484375 54.132812 26.796875 55.378906 28.394531 L 62.707031 40.742188 L 72.710938 46.597656 C 73.558594 47.148438 74.097656 48.050781 73.984375 49.035156 C 73.84375 50.5625 72.273438 51.707031 70.476562 51.574219 C 69.921875 51.550781 69.46875 51.355469 68.976562 51.164062 L 58.066406 44.78125 C 57.726562 44.550781 57.457031 44.265625 57.230469 43.964844 L 54.5 39.335938 L 51.203125 51.644531 L 64.09375 64.582031 C 64.390625 64.976562 64.589844 65.445312 64.703125 65.914062 L 68.183594 81.53125 C 68.152344 81.882812 68.210938 82.097656 68.183594 82.375 C 67.984375 84.707031 65.605469 86.390625 62.90625 86.222656 C 60.65625 86.066406 59 84.65625 58.476562 82.914062 L 55.191406 68.285156 L 44.707031 58.546875 L 42.289062 68.03125 C 42.203125 68.476562 41.511719 69.414062 41.3125 69.785156 L 31.25 84.1875 C 30.261719 85.5 28.578125 86.339844 26.667969 86.210938 C 23.9375 86.039062 21.914062 84.019531 22.140625 81.710938 C 22.195312 81.0625 22.519531 80.378906 22.804688 79.910156 L 32.144531 66.601562 L 39.941406 37.265625 L 34.847656 40.765625 L 32.144531 51.210938 C 31.773438 52.558594 30.347656 53.652344 28.664062 53.542969 C 26.835938 53.425781 25.507812 52.089844 25.648438 50.539062 C 25.648438 50.417969 25.675781 50.296875 25.703125 50.152344 L 28.902344 37.976562 C 29.101562 37.460938 29.425781 36.988281 29.90625 36.628906 L 44.496094 26.589844 Z M 44.496094 26.59375 " fill-opacity="1" fill-rule="nonzero"/></g></svg>