<svg xmlns="http://www.w3.org/2000/svg" xmlns:xlink="http://www.w3.org/1999/xlink" width="128" zoomAndPan="magnify" viewBox="0 0 96 95.999999" height="128" preserveAspectRatio="xMidYMid meet" version="1.0"><defs><filter x="0%" y="0%" width="100%" height="100%" id="a90c030144"><feColorMatrix values="0 0 0 0 1 0 0 0 0 1 0 0 0 0 1 0 0 0 1 0" color-interpolation-filters="sRGB"/></filter><mask id="fe7e32fb00"><g filter="url(#a90c030144)"><rect x="-9.6" width="115.2" fill="#000000" y="-9.6" height="115.199999" fill-opacity="0.62"/></g></mask><clipPath id="5bf2edcadc"><path d="M 0.601562 0.601562 L 77.101562 0.601562 L 77.101562 47 L 0.601562 47 Z M 0.601562 0.601562 " clip-rule="nonzero"/></clipPath><clipPath id="4eb80849c2"><rect x="0" width="78" y="0" height="48"/></clipPath><clipPath id="4b8ab25f4d"><path d="M 46.777344 69.800781 L 49.027344 69.800781 L 49.027344 72.050781 L 46.777344 72.050781 Z M 46.777344 69.800781 " clip-rule="nonzero"/></clipPath><clipPath id="5bec3d9e58"><path d="M 47 69.800781 L 49 69.800781 L 49 71 L 47 71 Z M 47 69.800781 " clip-rule="nonzero"/></clipPath><clipPath id="6f95a0e2df"><path d="M 47 69.800781 L 48 69.800781 L 48 71 L 47 71 Z M 47 69.800781 " clip-rule="nonzero"/></clipPath><clipPath id="cfa50ae41b"><path d="M 46.777344 70 L 48 70 L 48 71 L 46.777344 71 Z M 46.777344 70 " clip-rule="nonzero"/></clipPath><clipPath id="6f21bd8416"><path d="M 48 70 L 49.027344 70 L 49.027344 71 L 48 71 Z M 48 70 " clip-rule="nonzero"/></clipPath><clipPath id="e64a38c723"><path d="M 48 71 L 49 71 L 49 72.050781 L 48 72.050781 Z M 48 71 " clip-rule="nonzero"/></clipPath><clipPath id="b561a06772"><path d="M 48 69.800781 L 49 69.800781 L 49 71 L 48 71 Z M 48 69.800781 " clip-rule="nonzero"/></clipPath><clipPath id="978afd2b90"><path d="M 47 69.800781 L 49 69.800781 L 49 70 L 47 70 Z M 47 69.800781 " clip-rule="nonzero"/></clipPath><clipPath id="a1f56de024"><path d="M 47 69.800781 L 48 69.800781 L 48 71 L 47 71 Z M 47 69.800781 " clip-rule="nonzero"/></clipPath><clipPath id="5c2cdf6153"><path d="M 47 71 L 48 71 L 48 72.050781 L 47 72.050781 Z M 47 71 " clip-rule="nonzero"/></clipPath><clipPath id="4376153a30"><path d="M 46.777344 71 L 48 71 L 48 72 L 46.777344 72 Z M 46.777344 71 " clip-rule="nonzero"/></clipPath><clipPath id="b50257548c"><path d="M 46.777344 70 L 48 70 L 48 71 L 46.777344 71 Z M 46.777344 70 " clip-rule="nonzero"/></clipPath><clipPath id="8e3b3ee545"><path d="M 9.601562 40.03125 L 86.101562 40.03125 L 86.101562 86.53125 L 9.601562 86.53125 Z M 9.601562 40.03125 " clip-rule="nonzero"/></clipPath></defs><g mask="url(#fe7e32fb00)"><g transform="matrix(1, 0, 0, 1, 9, 9)"><g clip-path="url(#4eb80849c2)"><g clip-path="url(#5bf2edcadc)"><path fill="#7491c5" d="M 0.675781 0.601562 C 0.667969 0.601562 0.660156 0.605469 0.65625 0.613281 C 0.652344 0.621094 0.652344 0.628906 0.660156 0.636719 C 5.101562 5.9375 7.96875 10.03125 9.257812 12.921875 C 9.261719 12.925781 9.261719 12.929688 9.265625 12.929688 C 10.738281 15.761719 11.535156 19.4375 11.65625 23.957031 C 11.65625 23.96875 11.667969 23.980469 11.679688 23.980469 L 11.6875 23.980469 C 19.5 25.722656 24.824219 27.972656 27.664062 30.738281 C 27.664062 30.738281 27.667969 30.742188 27.671875 30.742188 L 27.667969 30.742188 C 32.488281 35.175781 36.160156 40.578125 38.6875 46.949219 C 38.691406 46.957031 38.699219 46.960938 38.710938 46.960938 C 38.710938 46.960938 38.710938 46.960938 38.714844 46.960938 C 38.722656 46.957031 38.730469 46.949219 38.730469 46.9375 L 38.734375 46.9375 C 41.339844 40.601562 45.078125 35.246094 49.949219 30.871094 L 49.953125 30.867188 L 49.957031 30.867188 C 52.832031 28.140625 58.179688 25.953125 66.007812 24.308594 L 66.015625 24.308594 C 66.027344 24.308594 66.039062 24.300781 66.039062 24.289062 C 66.214844 19.765625 67.058594 16.097656 68.566406 13.285156 L 68.5625 13.285156 L 68.5625 13.289062 L 68.570312 13.28125 C 69.894531 10.40625 72.808594 6.34375 77.316406 1.101562 C 77.324219 1.09375 77.324219 1.085938 77.320312 1.078125 C 77.316406 1.070312 77.308594 1.0625 77.300781 1.0625 L 77.285156 1.0625 C 74.152344 1.492188 68.296875 3.734375 59.714844 7.792969 C 59.707031 7.796875 59.703125 7.808594 59.703125 7.816406 C 59.703125 7.820312 59.707031 7.824219 59.707031 7.824219 C 55.59375 17.136719 51.058594 23.140625 46.105469 25.832031 L 46.097656 25.835938 C 44.5625 26.59375 43.457031 26.972656 42.78125 26.972656 C 42.777344 26.972656 42.773438 26.972656 42.769531 26.972656 C 42.546875 26.96875 42.375 26.929688 42.25 26.84375 C 42.199219 26.8125 42.164062 26.757812 42.160156 26.699219 L 41.269531 18.679688 C 41.269531 18.667969 41.257812 18.660156 41.246094 18.660156 L 41.238281 18.660156 C 41.226562 18.660156 41.21875 18.664062 41.214844 18.675781 C 40.546875 20.867188 39.835938 21.960938 39.082031 21.960938 C 39.078125 21.960938 39.078125 21.960938 39.074219 21.960938 C 39.007812 21.960938 38.945312 21.953125 38.875 21.9375 C 38.875 21.9375 38.871094 21.933594 38.867188 21.933594 L 38.851562 21.933594 C 38.851562 21.933594 38.847656 21.933594 38.84375 21.9375 C 38.777344 21.953125 38.714844 21.960938 38.648438 21.960938 C 38.648438 21.960938 38.648438 21.960938 38.644531 21.960938 C 37.886719 21.957031 37.1875 20.851562 36.542969 18.644531 C 36.542969 18.636719 36.53125 18.628906 36.523438 18.628906 L 36.511719 18.628906 C 36.5 18.628906 36.492188 18.636719 36.492188 18.648438 L 35.503906 26.65625 C 35.496094 26.71875 35.464844 26.769531 35.414062 26.804688 C 35.289062 26.882812 35.117188 26.925781 34.902344 26.925781 C 34.898438 26.925781 34.894531 26.925781 34.890625 26.925781 C 34.214844 26.917969 33.109375 26.527344 31.578125 25.746094 L 31.570312 25.742188 C 26.648438 22.992188 22.1875 16.9375 18.1875 7.574219 L 18.183594 7.574219 C 18.1875 7.570312 18.1875 7.570312 18.1875 7.566406 C 18.191406 7.554688 18.1875 7.546875 18.175781 7.539062 C 9.648438 3.382812 3.816406 1.066406 0.691406 0.601562 Z M 0.675781 0.601562 " fill-opacity="1" fill-rule="nonzero"/></g></g></g></g><g clip-path="url(#4b8ab25f4d)"><path fill="#ffffff" d="M 48.886719 70.460938 L 48.324219 70.460938 L 48.324219 70.195312 L 48.183594 70.195312 L 48.183594 69.929688 L 48.042969 69.929688 L 48.042969 69.800781 L 47.761719 69.800781 L 47.761719 69.929688 L 47.621094 69.929688 L 47.621094 70.195312 L 47.480469 70.195312 L 47.480469 70.460938 L 46.777344 70.460938 L 46.777344 70.726562 L 46.917969 70.726562 L 46.917969 70.859375 L 47.058594 70.859375 L 47.058594 70.992188 L 47.199219 70.992188 L 47.199219 71.253906 L 47.058594 71.253906 L 47.058594 71.652344 L 46.917969 71.652344 L 46.917969 71.917969 L 47.058594 71.917969 L 47.058594 72.050781 L 47.339844 72.050781 L 47.339844 71.917969 L 47.480469 71.917969 L 47.480469 71.785156 L 47.761719 71.785156 L 47.761719 71.652344 L 48.042969 71.652344 L 48.042969 71.785156 L 48.324219 71.785156 L 48.324219 71.917969 L 48.464844 71.917969 L 48.464844 72.050781 L 48.746094 72.050781 L 48.746094 71.917969 L 48.886719 71.917969 L 48.886719 71.652344 L 48.746094 71.652344 L 48.746094 71.253906 L 48.605469 71.253906 L 48.605469 70.992188 L 48.746094 70.992188 L 48.746094 70.859375 L 48.886719 70.859375 L 48.886719 70.726562 L 49.027344 70.726562 L 49.027344 70.460938 Z M 48.886719 70.460938 " fill-opacity="1" fill-rule="nonzero"/></g><path fill="#ffffff" d="M 47.199219 71.652344 L 47.339844 71.652344 L 47.339844 71.785156 L 47.199219 71.785156 Z M 47.199219 71.652344 " fill-opacity="1" fill-rule="nonzero"/><path fill="#ffffff" d="M 48.464844 71.652344 L 48.605469 71.652344 L 48.605469 71.785156 L 48.464844 71.785156 Z M 48.464844 71.652344 " fill-opacity="1" fill-rule="nonzero"/><path fill="#ffffff" d="M 48.746094 70.59375 L 48.886719 70.59375 L 48.886719 70.726562 L 48.746094 70.726562 Z M 48.746094 70.59375 " fill-opacity="1" fill-rule="nonzero"/><path fill="#ffffff" d="M 48.605469 71.785156 L 48.746094 71.785156 L 48.746094 71.917969 L 48.605469 71.917969 Z M 48.605469 71.785156 " fill-opacity="1" fill-rule="nonzero"/><path fill="#ffffff" d="M 48.605469 71.652344 L 48.746094 71.652344 L 48.746094 71.785156 L 48.605469 71.785156 Z M 48.605469 71.652344 " fill-opacity="1" fill-rule="nonzero"/><path fill="#ffffff" d="M 48.605469 70.726562 L 48.746094 70.726562 L 48.746094 70.859375 L 48.605469 70.859375 Z M 48.605469 70.726562 " fill-opacity="1" fill-rule="nonzero"/><path fill="#ffffff" d="M 48.605469 70.59375 L 48.746094 70.59375 L 48.746094 70.726562 L 48.605469 70.726562 Z M 48.605469 70.59375 " fill-opacity="1" fill-rule="nonzero"/><path fill="#ffffff" d="M 48.464844 71.785156 L 48.605469 71.785156 L 48.605469 71.917969 L 48.464844 71.917969 Z M 48.464844 71.785156 " fill-opacity="1" fill-rule="nonzero"/><path fill="#ffffff" d="M 48.464844 71.519531 L 48.605469 71.519531 L 48.605469 71.652344 L 48.464844 71.652344 Z M 48.464844 71.519531 " fill-opacity="1" fill-rule="nonzero"/><path fill="#ffffff" d="M 48.464844 71.386719 L 48.605469 71.386719 L 48.605469 71.519531 L 48.464844 71.519531 Z M 48.464844 71.386719 " fill-opacity="1" fill-rule="nonzero"/><path fill="#ffffff" d="M 48.464844 71.253906 L 48.605469 71.253906 L 48.605469 71.386719 L 48.464844 71.386719 Z M 48.464844 71.253906 " fill-opacity="1" fill-rule="nonzero"/><path fill="#ffffff" d="M 48.464844 70.859375 L 48.605469 70.859375 L 48.605469 70.992188 L 48.464844 70.992188 Z M 48.464844 70.859375 " fill-opacity="1" fill-rule="nonzero"/><path fill="#ffffff" d="M 48.464844 70.726562 L 48.605469 70.726562 L 48.605469 70.859375 L 48.464844 70.859375 Z M 48.464844 70.726562 " fill-opacity="1" fill-rule="nonzero"/><path fill="#ffffff" d="M 48.464844 70.59375 L 48.605469 70.59375 L 48.605469 70.726562 L 48.464844 70.726562 Z M 48.464844 70.59375 " fill-opacity="1" fill-rule="nonzero"/><path fill="#ffffff" d="M 48.324219 71.652344 L 48.464844 71.652344 L 48.464844 71.785156 L 48.324219 71.785156 Z M 48.324219 71.652344 " fill-opacity="1" fill-rule="nonzero"/><path fill="#ffffff" d="M 48.324219 71.519531 L 48.464844 71.519531 L 48.464844 71.652344 L 48.324219 71.652344 Z M 48.324219 71.519531 " fill-opacity="1" fill-rule="nonzero"/><path fill="#ffffff" d="M 48.324219 71.386719 L 48.464844 71.386719 L 48.464844 71.519531 L 48.324219 71.519531 Z M 48.324219 71.386719 " fill-opacity="1" fill-rule="nonzero"/><path fill="#ffffff" d="M 48.324219 71.253906 L 48.464844 71.253906 L 48.464844 71.386719 L 48.324219 71.386719 Z M 48.324219 71.253906 " fill-opacity="1" fill-rule="nonzero"/><path fill="#ffffff" d="M 48.324219 71.121094 L 48.464844 71.121094 L 48.464844 71.257812 L 48.324219 71.257812 Z M 48.324219 71.121094 " fill-opacity="1" fill-rule="nonzero"/><path fill="#ffffff" d="M 48.324219 70.992188 L 48.464844 70.992188 L 48.464844 71.121094 L 48.324219 71.121094 Z M 48.324219 70.992188 " fill-opacity="1" fill-rule="nonzero"/><path fill="#ffffff" d="M 48.324219 70.859375 L 48.464844 70.859375 L 48.464844 70.992188 L 48.324219 70.992188 Z M 48.324219 70.859375 " fill-opacity="1" fill-rule="nonzero"/><path fill="#ffffff" d="M 48.324219 70.726562 L 48.464844 70.726562 L 48.464844 70.859375 L 48.324219 70.859375 Z M 48.324219 70.726562 " fill-opacity="1" fill-rule="nonzero"/><path fill="#ffffff" d="M 48.324219 70.59375 L 48.464844 70.59375 L 48.464844 70.726562 L 48.324219 70.726562 Z M 48.324219 70.59375 " fill-opacity="1" fill-rule="nonzero"/><path fill="#ffffff" d="M 48.183594 71.519531 L 48.324219 71.519531 L 48.324219 71.652344 L 48.183594 71.652344 Z M 48.183594 71.519531 " fill-opacity="1" fill-rule="nonzero"/><path fill="#ffffff" d="M 48.183594 71.386719 L 48.324219 71.386719 L 48.324219 71.519531 L 48.183594 71.519531 Z M 48.183594 71.386719 " fill-opacity="1" fill-rule="nonzero"/><path fill="#ffffff" d="M 48.183594 71.253906 L 48.324219 71.253906 L 48.324219 71.386719 L 48.183594 71.386719 Z M 48.183594 71.253906 " fill-opacity="1" fill-rule="nonzero"/><path fill="#ffffff" d="M 48.183594 71.121094 L 48.324219 71.121094 L 48.324219 71.257812 L 48.183594 71.257812 Z M 48.183594 71.121094 " fill-opacity="1" fill-rule="nonzero"/><path fill="#ffffff" d="M 48.183594 70.992188 L 48.324219 70.992188 L 48.324219 71.121094 L 48.183594 71.121094 Z M 48.183594 70.992188 " fill-opacity="1" fill-rule="nonzero"/><path fill="#ffffff" d="M 48.183594 70.859375 L 48.324219 70.859375 L 48.324219 70.992188 L 48.183594 70.992188 Z M 48.183594 70.859375 " fill-opacity="1" fill-rule="nonzero"/><path fill="#ffffff" d="M 48.183594 70.726562 L 48.324219 70.726562 L 48.324219 70.859375 L 48.183594 70.859375 Z M 48.183594 70.726562 " fill-opacity="1" fill-rule="nonzero"/><path fill="#ffffff" d="M 48.183594 70.59375 L 48.324219 70.59375 L 48.324219 70.726562 L 48.183594 70.726562 Z M 48.183594 70.59375 " fill-opacity="1" fill-rule="nonzero"/><path fill="#ffffff" d="M 48.183594 70.460938 L 48.324219 70.460938 L 48.324219 70.59375 L 48.183594 70.59375 Z M 48.183594 70.460938 " fill-opacity="1" fill-rule="nonzero"/><path fill="#ffffff" d="M 48.042969 71.519531 L 48.183594 71.519531 L 48.183594 71.652344 L 48.042969 71.652344 Z M 48.042969 71.519531 " fill-opacity="1" fill-rule="nonzero"/><path fill="#ffffff" d="M 48.042969 71.386719 L 48.183594 71.386719 L 48.183594 71.519531 L 48.042969 71.519531 Z M 48.042969 71.386719 " fill-opacity="1" fill-rule="nonzero"/><path fill="#ffffff" d="M 48.042969 71.253906 L 48.183594 71.253906 L 48.183594 71.386719 L 48.042969 71.386719 Z M 48.042969 71.253906 " fill-opacity="1" fill-rule="nonzero"/><path fill="#ffffff" d="M 48.042969 71.121094 L 48.183594 71.121094 L 48.183594 71.257812 L 48.042969 71.257812 Z M 48.042969 71.121094 " fill-opacity="1" fill-rule="nonzero"/><path fill="#ffffff" d="M 48.042969 70.992188 L 48.183594 70.992188 L 48.183594 71.121094 L 48.042969 71.121094 Z M 48.042969 70.992188 " fill-opacity="1" fill-rule="nonzero"/><path fill="#ffffff" d="M 48.042969 70.859375 L 48.183594 70.859375 L 48.183594 70.992188 L 48.042969 70.992188 Z M 48.042969 70.859375 " fill-opacity="1" fill-rule="nonzero"/><path fill="#ffffff" d="M 48.042969 70.726562 L 48.183594 70.726562 L 48.183594 70.859375 L 48.042969 70.859375 Z M 48.042969 70.726562 " fill-opacity="1" fill-rule="nonzero"/><path fill="#ffffff" d="M 48.042969 70.59375 L 48.183594 70.59375 L 48.183594 70.726562 L 48.042969 70.726562 Z M 48.042969 70.59375 " fill-opacity="1" fill-rule="nonzero"/><path fill="#ffffff" d="M 48.042969 70.460938 L 48.183594 70.460938 L 48.183594 70.59375 L 48.042969 70.59375 Z M 48.042969 70.460938 " fill-opacity="1" fill-rule="nonzero"/><path fill="#ffffff" d="M 48.042969 70.328125 L 48.183594 70.328125 L 48.183594 70.460938 L 48.042969 70.460938 Z M 48.042969 70.328125 " fill-opacity="1" fill-rule="nonzero"/><path fill="#ffffff" d="M 48.042969 70.195312 L 48.183594 70.195312 L 48.183594 70.328125 L 48.042969 70.328125 Z M 48.042969 70.195312 " fill-opacity="1" fill-rule="nonzero"/><path fill="#ffffff" d="M 47.902344 71.386719 L 48.042969 71.386719 L 48.042969 71.519531 L 47.902344 71.519531 Z M 47.902344 71.386719 " fill-opacity="1" fill-rule="nonzero"/><path fill="#ffffff" d="M 47.902344 71.253906 L 48.042969 71.253906 L 48.042969 71.386719 L 47.902344 71.386719 Z M 47.902344 71.253906 " fill-opacity="1" fill-rule="nonzero"/><path fill="#ffffff" d="M 47.902344 71.121094 L 48.042969 71.121094 L 48.042969 71.257812 L 47.902344 71.257812 Z M 47.902344 71.121094 " fill-opacity="1" fill-rule="nonzero"/><path fill="#ffffff" d="M 47.902344 70.992188 L 48.042969 70.992188 L 48.042969 71.121094 L 47.902344 71.121094 Z M 47.902344 70.992188 " fill-opacity="1" fill-rule="nonzero"/><path fill="#ffffff" d="M 47.902344 70.859375 L 48.042969 70.859375 L 48.042969 70.992188 L 47.902344 70.992188 Z M 47.902344 70.859375 " fill-opacity="1" fill-rule="nonzero"/><path fill="#ffffff" d="M 47.902344 70.726562 L 48.042969 70.726562 L 48.042969 70.859375 L 47.902344 70.859375 Z M 47.902344 70.726562 " fill-opacity="1" fill-rule="nonzero"/><path fill="#ffffff" d="M 47.902344 70.59375 L 48.042969 70.59375 L 48.042969 70.726562 L 47.902344 70.726562 Z M 47.902344 70.59375 " fill-opacity="1" fill-rule="nonzero"/><path fill="#ffffff" d="M 47.902344 70.460938 L 48.042969 70.460938 L 48.042969 70.59375 L 47.902344 70.59375 Z M 47.902344 70.460938 " fill-opacity="1" fill-rule="nonzero"/><path fill="#ffffff" d="M 47.902344 70.328125 L 48.042969 70.328125 L 48.042969 70.460938 L 47.902344 70.460938 Z M 47.902344 70.328125 " fill-opacity="1" fill-rule="nonzero"/><path fill="#ffffff" d="M 47.902344 70.195312 L 48.042969 70.195312 L 48.042969 70.328125 L 47.902344 70.328125 Z M 47.902344 70.195312 " fill-opacity="1" fill-rule="nonzero"/><path fill="#ffffff" d="M 47.902344 70.0625 L 48.042969 70.0625 L 48.042969 70.195312 L 47.902344 70.195312 Z M 47.902344 70.0625 " fill-opacity="1" fill-rule="nonzero"/><g clip-path="url(#5bec3d9e58)"><path fill="#ffffff" d="M 47.902344 69.929688 L 48.042969 69.929688 L 48.042969 70.0625 L 47.902344 70.0625 Z M 47.902344 69.929688 " fill-opacity="1" fill-rule="nonzero"/></g><path fill="#ffffff" d="M 47.761719 71.386719 L 47.902344 71.386719 L 47.902344 71.519531 L 47.761719 71.519531 Z M 47.761719 71.386719 " fill-opacity="1" fill-rule="nonzero"/><path fill="#ffffff" d="M 47.761719 71.253906 L 47.902344 71.253906 L 47.902344 71.386719 L 47.761719 71.386719 Z M 47.761719 71.253906 " fill-opacity="1" fill-rule="nonzero"/><path fill="#ffffff" d="M 47.761719 71.121094 L 47.902344 71.121094 L 47.902344 71.257812 L 47.761719 71.257812 Z M 47.761719 71.121094 " fill-opacity="1" fill-rule="nonzero"/><path fill="#ffffff" d="M 47.761719 70.992188 L 47.902344 70.992188 L 47.902344 71.121094 L 47.761719 71.121094 Z M 47.761719 70.992188 " fill-opacity="1" fill-rule="nonzero"/><path fill="#ffffff" d="M 47.761719 70.859375 L 47.902344 70.859375 L 47.902344 70.992188 L 47.761719 70.992188 Z M 47.761719 70.859375 " fill-opacity="1" fill-rule="nonzero"/><path fill="#ffffff" d="M 47.761719 70.726562 L 47.902344 70.726562 L 47.902344 70.859375 L 47.761719 70.859375 Z M 47.761719 70.726562 " fill-opacity="1" fill-rule="nonzero"/><path fill="#ffffff" d="M 47.761719 70.460938 L 47.902344 70.460938 L 47.902344 70.59375 L 47.761719 70.59375 Z M 47.761719 70.460938 " fill-opacity="1" fill-rule="nonzero"/><path fill="#ffffff" d="M 47.761719 70.328125 L 47.902344 70.328125 L 47.902344 70.460938 L 47.761719 70.460938 Z M 47.761719 70.328125 " fill-opacity="1" fill-rule="nonzero"/><path fill="#ffffff" d="M 47.761719 70.195312 L 47.902344 70.195312 L 47.902344 70.328125 L 47.761719 70.328125 Z M 47.761719 70.195312 " fill-opacity="1" fill-rule="nonzero"/><path fill="#ffffff" d="M 47.761719 70.0625 L 47.902344 70.0625 L 47.902344 70.195312 L 47.761719 70.195312 Z M 47.761719 70.0625 " fill-opacity="1" fill-rule="nonzero"/><g clip-path="url(#6f95a0e2df)"><path fill="#ffffff" d="M 47.761719 69.929688 L 47.902344 69.929688 L 47.902344 70.0625 L 47.761719 70.0625 Z M 47.761719 69.929688 " fill-opacity="1" fill-rule="nonzero"/></g><path fill="#ffffff" d="M 47.621094 71.519531 L 47.761719 71.519531 L 47.761719 71.652344 L 47.621094 71.652344 Z M 47.621094 71.519531 " fill-opacity="1" fill-rule="nonzero"/><path fill="#ffffff" d="M 47.621094 71.386719 L 47.761719 71.386719 L 47.761719 71.519531 L 47.621094 71.519531 Z M 47.621094 71.386719 " fill-opacity="1" fill-rule="nonzero"/><path fill="#ffffff" d="M 47.621094 71.253906 L 47.761719 71.253906 L 47.761719 71.386719 L 47.621094 71.386719 Z M 47.621094 71.253906 " fill-opacity="1" fill-rule="nonzero"/><path fill="#ffffff" d="M 47.621094 71.121094 L 47.761719 71.121094 L 47.761719 71.257812 L 47.621094 71.257812 Z M 47.621094 71.121094 " fill-opacity="1" fill-rule="nonzero"/><path fill="#ffffff" d="M 47.621094 70.992188 L 47.761719 70.992188 L 47.761719 71.121094 L 47.621094 71.121094 Z M 47.621094 70.992188 " fill-opacity="1" fill-rule="nonzero"/><path fill="#ffffff" d="M 47.621094 70.59375 L 47.761719 70.59375 L 47.761719 70.726562 L 47.621094 70.726562 Z M 47.621094 70.59375 " fill-opacity="1" fill-rule="nonzero"/><path fill="#ffffff" d="M 47.621094 70.460938 L 47.761719 70.460938 L 47.761719 70.59375 L 47.621094 70.59375 Z M 47.621094 70.460938 " fill-opacity="1" fill-rule="nonzero"/><path fill="#ffffff" d="M 47.621094 70.328125 L 47.761719 70.328125 L 47.761719 70.460938 L 47.621094 70.460938 Z M 47.621094 70.328125 " fill-opacity="1" fill-rule="nonzero"/><path fill="#ffffff" d="M 47.621094 70.195312 L 47.761719 70.195312 L 47.761719 70.328125 L 47.621094 70.328125 Z M 47.621094 70.195312 " fill-opacity="1" fill-rule="nonzero"/><path fill="#ffffff" d="M 47.480469 71.519531 L 47.621094 71.519531 L 47.621094 71.652344 L 47.480469 71.652344 Z M 47.480469 71.519531 " fill-opacity="1" fill-rule="nonzero"/><path fill="#ffffff" d="M 47.480469 71.386719 L 47.621094 71.386719 L 47.621094 71.519531 L 47.480469 71.519531 Z M 47.480469 71.386719 " fill-opacity="1" fill-rule="nonzero"/><path fill="#ffffff" d="M 47.480469 71.253906 L 47.621094 71.253906 L 47.621094 71.386719 L 47.480469 71.386719 Z M 47.480469 71.253906 " fill-opacity="1" fill-rule="nonzero"/><path fill="#ffffff" d="M 47.480469 71.121094 L 47.621094 71.121094 L 47.621094 71.257812 L 47.480469 71.257812 Z M 47.480469 71.121094 " fill-opacity="1" fill-rule="nonzero"/><path fill="#ffffff" d="M 47.480469 70.992188 L 47.621094 70.992188 L 47.621094 71.121094 L 47.480469 71.121094 Z M 47.480469 70.992188 " fill-opacity="1" fill-rule="nonzero"/><path fill="#ffffff" d="M 47.480469 70.859375 L 47.621094 70.859375 L 47.621094 70.992188 L 47.480469 70.992188 Z M 47.480469 70.859375 " fill-opacity="1" fill-rule="nonzero"/><path fill="#ffffff" d="M 47.480469 70.726562 L 47.621094 70.726562 L 47.621094 70.859375 L 47.480469 70.859375 Z M 47.480469 70.726562 " fill-opacity="1" fill-rule="nonzero"/><path fill="#ffffff" d="M 47.480469 70.59375 L 47.621094 70.59375 L 47.621094 70.726562 L 47.480469 70.726562 Z M 47.480469 70.59375 " fill-opacity="1" fill-rule="nonzero"/><path fill="#ffffff" d="M 47.480469 70.460938 L 47.621094 70.460938 L 47.621094 70.59375 L 47.480469 70.59375 Z M 47.480469 70.460938 " fill-opacity="1" fill-rule="nonzero"/><path fill="#ffffff" d="M 47.339844 71.652344 L 47.480469 71.652344 L 47.480469 71.785156 L 47.339844 71.785156 Z M 47.339844 71.652344 " fill-opacity="1" fill-rule="nonzero"/><path fill="#ffffff" d="M 47.339844 71.519531 L 47.480469 71.519531 L 47.480469 71.652344 L 47.339844 71.652344 Z M 47.339844 71.519531 " fill-opacity="1" fill-rule="nonzero"/><path fill="#ffffff" d="M 47.339844 71.386719 L 47.480469 71.386719 L 47.480469 71.519531 L 47.339844 71.519531 Z M 47.339844 71.386719 " fill-opacity="1" fill-rule="nonzero"/><path fill="#ffffff" d="M 47.339844 71.253906 L 47.480469 71.253906 L 47.480469 71.386719 L 47.339844 71.386719 Z M 47.339844 71.253906 " fill-opacity="1" fill-rule="nonzero"/><path fill="#ffffff" d="M 47.339844 71.121094 L 47.480469 71.121094 L 47.480469 71.257812 L 47.339844 71.257812 Z M 47.339844 71.121094 " fill-opacity="1" fill-rule="nonzero"/><path fill="#ffffff" d="M 47.339844 70.992188 L 47.480469 70.992188 L 47.480469 71.121094 L 47.339844 71.121094 Z M 47.339844 70.992188 " fill-opacity="1" fill-rule="nonzero"/><path fill="#ffffff" d="M 47.339844 70.859375 L 47.480469 70.859375 L 47.480469 70.992188 L 47.339844 70.992188 Z M 47.339844 70.859375 " fill-opacity="1" fill-rule="nonzero"/><path fill="#ffffff" d="M 47.339844 70.726562 L 47.480469 70.726562 L 47.480469 70.859375 L 47.339844 70.859375 Z M 47.339844 70.726562 " fill-opacity="1" fill-rule="nonzero"/><path fill="#ffffff" d="M 47.339844 70.59375 L 47.480469 70.59375 L 47.480469 70.726562 L 47.339844 70.726562 Z M 47.339844 70.59375 " fill-opacity="1" fill-rule="nonzero"/><path fill="#ffffff" d="M 47.199219 71.785156 L 47.339844 71.785156 L 47.339844 71.917969 L 47.199219 71.917969 Z M 47.199219 71.785156 " fill-opacity="1" fill-rule="nonzero"/><path fill="#ffffff" d="M 47.199219 71.519531 L 47.339844 71.519531 L 47.339844 71.652344 L 47.199219 71.652344 Z M 47.199219 71.519531 " fill-opacity="1" fill-rule="nonzero"/><path fill="#ffffff" d="M 47.199219 71.386719 L 47.339844 71.386719 L 47.339844 71.519531 L 47.199219 71.519531 Z M 47.199219 71.386719 " fill-opacity="1" fill-rule="nonzero"/><path fill="#ffffff" d="M 47.199219 71.253906 L 47.339844 71.253906 L 47.339844 71.386719 L 47.199219 71.386719 Z M 47.199219 71.253906 " fill-opacity="1" fill-rule="nonzero"/><path fill="#ffffff" d="M 47.199219 70.859375 L 47.339844 70.859375 L 47.339844 70.992188 L 47.199219 70.992188 Z M 47.199219 70.859375 " fill-opacity="1" fill-rule="nonzero"/><path fill="#ffffff" d="M 47.199219 70.726562 L 47.339844 70.726562 L 47.339844 70.859375 L 47.199219 70.859375 Z M 47.199219 70.726562 " fill-opacity="1" fill-rule="nonzero"/><path fill="#ffffff" d="M 47.199219 70.59375 L 47.339844 70.59375 L 47.339844 70.726562 L 47.199219 70.726562 Z M 47.199219 70.59375 " fill-opacity="1" fill-rule="nonzero"/><path fill="#ffffff" d="M 47.058594 71.785156 L 47.199219 71.785156 L 47.199219 71.917969 L 47.058594 71.917969 Z M 47.058594 71.785156 " fill-opacity="1" fill-rule="nonzero"/><path fill="#ffffff" d="M 47.058594 71.652344 L 47.199219 71.652344 L 47.199219 71.785156 L 47.058594 71.785156 Z M 47.058594 71.652344 " fill-opacity="1" fill-rule="nonzero"/><path fill="#ffffff" d="M 47.058594 70.726562 L 47.199219 70.726562 L 47.199219 70.859375 L 47.058594 70.859375 Z M 47.058594 70.726562 " fill-opacity="1" fill-rule="nonzero"/><path fill="#ffffff" d="M 47.058594 70.59375 L 47.199219 70.59375 L 47.199219 70.726562 L 47.058594 70.726562 Z M 47.058594 70.59375 " fill-opacity="1" fill-rule="nonzero"/><g clip-path="url(#cfa50ae41b)"><path fill="#ffffff" d="M 46.917969 70.59375 L 47.058594 70.59375 L 47.058594 70.726562 L 46.917969 70.726562 Z M 46.917969 70.59375 " fill-opacity="1" fill-rule="nonzero"/></g><g clip-path="url(#6f21bd8416)"><path fill="#0e0e11" d="M 48.886719 70.460938 L 48.324219 70.460938 L 48.324219 70.59375 L 48.886719 70.59375 L 48.886719 70.726562 L 49.027344 70.726562 L 49.027344 70.460938 Z M 48.886719 70.460938 " fill-opacity="1" fill-rule="nonzero"/></g><path fill="#0e0e11" d="M 48.746094 71.917969 L 48.886719 71.917969 L 48.886719 71.652344 L 48.746094 71.652344 Z M 48.746094 71.917969 " fill-opacity="1" fill-rule="nonzero"/><path fill="#0e0e11" d="M 48.746094 70.726562 L 48.886719 70.726562 L 48.886719 70.859375 L 48.746094 70.859375 Z M 48.746094 70.726562 " fill-opacity="1" fill-rule="nonzero"/><path fill="#0e0e11" d="M 48.605469 71.519531 L 48.605469 71.652344 L 48.746094 71.652344 L 48.746094 71.253906 L 48.605469 71.253906 Z M 48.605469 71.519531 " fill-opacity="1" fill-rule="nonzero"/><path fill="#0e0e11" d="M 48.605469 70.859375 L 48.746094 70.859375 L 48.746094 70.992188 L 48.605469 70.992188 Z M 48.605469 70.859375 " fill-opacity="1" fill-rule="nonzero"/><g clip-path="url(#e64a38c723)"><path fill="#0e0e11" d="M 48.464844 71.917969 L 48.464844 72.050781 L 48.746094 72.050781 L 48.746094 71.917969 Z M 48.464844 71.917969 " fill-opacity="1" fill-rule="nonzero"/></g><path fill="#0e0e11" d="M 48.464844 71.121094 L 48.464844 71.253906 L 48.605469 71.253906 L 48.605469 70.992188 L 48.464844 70.992188 Z M 48.464844 71.121094 " fill-opacity="1" fill-rule="nonzero"/><path fill="#0e0e11" d="M 48.324219 71.785156 L 48.464844 71.785156 L 48.464844 71.917969 L 48.324219 71.917969 Z M 48.324219 71.785156 " fill-opacity="1" fill-rule="nonzero"/><path fill="#0e0e11" d="M 48.183594 71.652344 L 48.042969 71.652344 L 48.042969 71.785156 L 48.324219 71.785156 L 48.324219 71.652344 Z M 48.183594 71.652344 " fill-opacity="1" fill-rule="nonzero"/><path fill="#0e0e11" d="M 48.183594 70.460938 L 48.324219 70.460938 L 48.324219 70.195312 L 48.183594 70.195312 Z M 48.183594 70.460938 " fill-opacity="1" fill-rule="nonzero"/><g clip-path="url(#b561a06772)"><path fill="#0e0e11" d="M 48.042969 70.195312 L 48.183594 70.195312 L 48.183594 69.929688 L 48.042969 69.929688 Z M 48.042969 70.195312 " fill-opacity="1" fill-rule="nonzero"/></g><path fill="#0e0e11" d="M 47.902344 71.519531 L 47.761719 71.519531 L 47.761719 71.652344 L 48.042969 71.652344 L 48.042969 71.519531 Z M 47.902344 71.519531 " fill-opacity="1" fill-rule="nonzero"/><g clip-path="url(#978afd2b90)"><path fill="#0e0e11" d="M 48.042969 69.929688 L 48.042969 69.800781 L 47.761719 69.800781 L 47.761719 69.929688 Z M 48.042969 69.929688 " fill-opacity="1" fill-rule="nonzero"/></g><path fill="#0e0e11" d="M 47.761719 70.59375 L 47.902344 70.59375 L 47.902344 70.726562 L 47.761719 70.726562 Z M 47.761719 70.59375 " fill-opacity="1" fill-rule="nonzero"/><path fill="#0e0e11" d="M 47.621094 70.859375 L 47.621094 70.992188 L 47.761719 70.992188 L 47.761719 70.726562 L 47.621094 70.726562 Z M 47.621094 70.859375 " fill-opacity="1" fill-rule="nonzero"/><g clip-path="url(#a1f56de024)"><path fill="#0e0e11" d="M 47.761719 70.0625 L 47.761719 69.929688 L 47.621094 69.929688 L 47.621094 70.195312 L 47.761719 70.195312 Z M 47.761719 70.0625 " fill-opacity="1" fill-rule="nonzero"/></g><path fill="#0e0e11" d="M 47.480469 71.652344 L 47.480469 71.785156 L 47.761719 71.785156 L 47.761719 71.652344 Z M 47.480469 71.652344 " fill-opacity="1" fill-rule="nonzero"/><path fill="#0e0e11" d="M 47.621094 70.328125 L 47.621094 70.195312 L 47.480469 70.195312 L 47.480469 70.460938 L 47.621094 70.460938 Z M 47.621094 70.328125 " fill-opacity="1" fill-rule="nonzero"/><path fill="#0e0e11" d="M 47.339844 71.785156 L 47.480469 71.785156 L 47.480469 71.917969 L 47.339844 71.917969 Z M 47.339844 71.785156 " fill-opacity="1" fill-rule="nonzero"/><path fill="#0e0e11" d="M 47.339844 71.121094 L 47.339844 70.992188 L 47.199219 70.992188 L 47.199219 71.253906 L 47.339844 71.253906 Z M 47.339844 71.121094 " fill-opacity="1" fill-rule="nonzero"/><g clip-path="url(#5c2cdf6153)"><path fill="#0e0e11" d="M 47.058594 71.917969 L 47.058594 72.050781 L 47.339844 72.050781 L 47.339844 71.917969 Z M 47.058594 71.917969 " fill-opacity="1" fill-rule="nonzero"/></g><path fill="#0e0e11" d="M 47.199219 71.519531 L 47.199219 71.253906 L 47.058594 71.253906 L 47.058594 71.652344 L 47.199219 71.652344 Z M 47.199219 71.519531 " fill-opacity="1" fill-rule="nonzero"/><path fill="#0e0e11" d="M 47.058594 70.859375 L 47.199219 70.859375 L 47.199219 70.992188 L 47.058594 70.992188 Z M 47.058594 70.859375 " fill-opacity="1" fill-rule="nonzero"/><g clip-path="url(#4376153a30)"><path fill="#0e0e11" d="M 47.058594 71.652344 L 46.917969 71.652344 L 46.917969 71.917969 L 47.058594 71.917969 Z M 47.058594 71.652344 " fill-opacity="1" fill-rule="nonzero"/></g><g clip-path="url(#b50257548c)"><path fill="#0e0e11" d="M 46.917969 70.726562 L 47.058594 70.726562 L 47.058594 70.859375 L 46.917969 70.859375 Z M 46.917969 70.726562 " fill-opacity="1" fill-rule="nonzero"/><path fill="#0e0e11" d="M 47.058594 70.59375 L 47.480469 70.59375 L 47.480469 70.460938 L 46.777344 70.460938 L 46.777344 70.726562 L 46.917969 70.726562 L 46.917969 70.59375 Z M 47.058594 70.59375 " fill-opacity="1" fill-rule="nonzero"/></g><g clip-path="url(#8e3b3ee545)"><path fill="#254276" d="M 9.675781 40.03125 C 9.667969 40.03125 9.660156 40.039062 9.65625 40.046875 C 9.652344 40.054688 9.652344 40.0625 9.660156 40.070312 C 14.101562 45.367188 16.96875 49.460938 18.257812 52.351562 C 18.261719 52.355469 18.261719 52.359375 18.265625 52.363281 C 19.738281 55.191406 20.535156 58.867188 20.65625 63.390625 C 20.65625 63.402344 20.667969 63.410156 20.679688 63.414062 L 20.6875 63.414062 C 28.5 65.152344 33.824219 67.40625 36.664062 70.167969 C 36.664062 70.171875 36.667969 70.171875 36.671875 70.175781 L 36.667969 70.175781 C 41.488281 74.609375 45.160156 80.011719 47.6875 86.378906 C 47.691406 86.386719 47.699219 86.394531 47.710938 86.394531 C 47.710938 86.394531 47.710938 86.394531 47.714844 86.394531 C 47.722656 86.390625 47.730469 86.382812 47.730469 86.371094 L 47.734375 86.371094 C 50.339844 80.035156 54.078125 74.679688 58.949219 70.304688 L 58.953125 70.296875 L 58.957031 70.296875 C 61.832031 67.574219 67.179688 65.386719 75.007812 63.742188 L 75.015625 63.742188 C 75.027344 63.742188 75.039062 63.730469 75.039062 63.71875 C 75.214844 59.199219 76.058594 55.53125 77.566406 52.71875 L 77.5625 52.71875 L 77.570312 52.710938 C 78.894531 49.835938 81.808594 45.777344 86.316406 40.53125 C 86.324219 40.527344 86.324219 40.515625 86.320312 40.507812 C 86.316406 40.5 86.308594 40.496094 86.300781 40.496094 L 86.285156 40.496094 C 83.152344 40.925781 77.296875 43.167969 68.714844 47.222656 C 68.707031 47.226562 68.703125 47.238281 68.703125 47.25 C 68.703125 47.253906 68.707031 47.253906 68.707031 47.257812 C 64.59375 56.570312 60.058594 62.570312 55.105469 65.261719 L 55.097656 65.265625 C 53.5625 66.023438 52.457031 66.402344 51.78125 66.402344 C 51.777344 66.402344 51.773438 66.402344 51.769531 66.402344 C 51.546875 66.402344 51.375 66.359375 51.25 66.277344 C 51.199219 66.242188 51.164062 66.191406 51.160156 66.128906 L 50.269531 58.109375 C 50.269531 58.097656 50.257812 58.089844 50.246094 58.089844 L 50.238281 58.089844 C 50.226562 58.089844 50.21875 58.097656 50.214844 58.105469 C 49.546875 60.296875 48.835938 61.394531 48.082031 61.394531 C 48.078125 61.394531 48.078125 61.394531 48.074219 61.394531 C 48.007812 61.394531 47.945312 61.386719 47.875 61.367188 C 47.875 61.367188 47.871094 61.367188 47.867188 61.367188 L 47.851562 61.367188 C 47.851562 61.367188 47.847656 61.367188 47.84375 61.367188 C 47.777344 61.382812 47.714844 61.390625 47.648438 61.390625 C 47.648438 61.390625 47.648438 61.390625 47.644531 61.390625 C 46.886719 61.386719 46.1875 60.28125 45.542969 58.078125 C 45.542969 58.070312 45.53125 58.0625 45.523438 58.0625 L 45.511719 58.0625 C 45.5 58.0625 45.492188 58.070312 45.492188 58.082031 L 44.503906 66.089844 C 44.496094 66.148438 44.464844 66.203125 44.414062 66.234375 C 44.289062 66.316406 44.117188 66.355469 43.902344 66.355469 C 43.898438 66.355469 43.894531 66.355469 43.890625 66.355469 C 43.214844 66.351562 42.109375 65.960938 40.578125 65.179688 L 40.570312 65.175781 C 35.648438 62.421875 31.1875 56.367188 27.1875 47.007812 L 27.183594 47.007812 C 27.1875 47.003906 27.1875 47 27.1875 46.996094 C 27.191406 46.988281 27.1875 46.976562 27.175781 46.972656 C 18.648438 42.8125 12.816406 40.5 9.691406 40.03125 Z M 9.675781 40.03125 " fill-opacity="1" fill-rule="nonzero"/></g></svg>